<svg xmlns="http://www.w3.org/2000/svg" version="1.1" width="1252" height="1252">
<path d="M0 0 C2.412820385214218 2.4128203852142462 2.4658423976079575 3.627786123200565 3.125 6.9375 C10.360151782568153 37.2596939028233 30.292967701142288 65.76348947721527 51.41796875 88.109375 C53 90 53 90 53 92 C53.65999999999997 92 54.31999999999999 92 55 92 C56.234375 93.2578125 56.234375 93.2578125 57.75 95.125 C61.29768020719524 99.29742892292774 65.068978820631 103.19088730130812 68.9375 107.0625 C69.51016601562503 107.63951660156249 70.08283203125 108.21653320312498 70.6728515625 108.81103515625 C83.62196286124401 121.7199318236315 98.11911734490889 133.24182045433645 113.11328125 143.67236328125 C115.97523534551584 145.68624868127785 118.79739136012574 147.75397673229202 121.625 149.815673828125 C132.880373537803 158.0136068979416 144.38061094095963 165.74673837304658 156.15625 173.17578125 C159.4690131120659 175.30086418040491 162.7338997022223 177.49169079469107 166 179.6875 C170.75215313069998 182.87998450365433 175.5455408304698 185.98725410095028 180.404541015625 189.0146484375 C211.3914681795825 208.32721516956548 241.6542285704096 229.3603687661814 269.14306640625 253.430419921875 C270.469574955554 254.55165624365713 271.8244690216668 255.63965528342476 273.19677734375 256.704345703125 C282.23016234687384 263.78093116906877 290.1809518047062 271.91385355376576 298.25341796875 280.047607421875 C300.75302573586214 282.5655479273534 303.2606196073558 285.07531759978144 305.76953125 287.583984375 C307.3832858515866 289.20265322346313 308.99658300529927 290.8217782874863 310.609375 292.44140625 C311.3480682373047 293.181212310791 312.0867614746094 293.921018371582 312.84783935546875 294.68324279785156 C317.4241934498343 299.3010259173219 321.7752220509177 304.0593098588052 326 309 C326.46362442016607 309.5359881591797 326.927248840332 310.07197631835936 327.40492248535156 310.62420654296875 C334.23151243084726 318.52802946007716 340.7547368617236 326.6289754925504 347 335 C347.49226074218745 335.6556494140625 347.984521484375 336.311298828125 348.49169921875 336.98681640625 C375.6355518655697 373.28294345751306 395.22737651628336 413.30990419897057 404.9375 457.6875 C405.2198852539062 458.9742260742187 405.50227050781245 460.2609521484376 405.793212890625 461.586669921875 C414.9627230801714 505.32661049812043 411.9076557936751 549.719656907553 400.875 592.75 C400.69910339355465 593.4398800659179 400.5232067871093 594.129760131836 400.34197998046875 594.8405456542969 C397.3595314322512 606.4607028516233 397.3595314322512 606.4607028516233 395 610 C395.00666183471685 609.2308828735352 395.0133236694336 608.4617657470703 395.0201873779297 607.6693420410156 C395.08121979311863 600.2899558541598 395.126429346353 592.9106981520455 395.1554365158081 585.5311222076416 C395.17085231990086 581.7405247508767 395.1916265217171 577.95014190672 395.226318359375 574.15966796875 C395.3947963350713 555.2212193081824 394.8720045744502 536.7746353423347 392 518 C391.88159759521477 517.2218896484375 391.76319519042977 516.443779296875 391.6412048339844 515.64208984375 C390.9481076863718 511.2180921472333 390.13350038250303 506.827041116096 389.25 502.4375 C388.99323486328126 501.14432861328123 388.7364697265625 499.85115722656246 388.471923828125 498.518798828125 C381.4550071575145 463.85049351826603 369.3243906084597 430.26952568665024 352.9931640625 398.91259765625 C351.96963791088865 396.94152984117557 350.96501716561943 394.96150365425274 349.9609375 392.98046875 C333.6396994804368 361.1091044403066 311.75163661156694 329.67951412562815 285.75 304.8515625 C284 303 284 303 284 301 C283.3399999999999 301 282.68000000000006 301 282 301 C280.625 299.56640625 280.625 299.56640625 279 297.5625 C275.57818657599137 293.54467399189156 271.88193453940517 290.08942732250756 267.921875 286.609375 C265.7498435237204 284.6696463554081 263.623644454073 282.7102164279803 261.515625 280.703125 C254.46611056966367 273.99464137160453 247.30374897062387 267.6823223823802 239.578125 261.765625 C236.4254148018921 259.3498217059702 233.35438710867606 256.84602569469655 230.291015625 254.318359375 C216.15653488031603 242.66752875129703 201.24207837315282 232.06203392572945 186.2392578125 221.56689453125 C183.84247637498925 219.88977468105986 181.44846749188133 218.20874446938467 179.0546875 216.52734375 C171.3318159956915 211.1071361545786 163.59613398309864 205.7076379612556 155.8125 200.375 C138.06090186620486 188.19903872514442 120.5582256234876 175.7734331322647 104 162 C102.14613547704425 160.49962659370954 100.2919654573247 158.99963058630027 98.4375 157.5 C94.03534205295159 153.90051472705727 89.77864576273794 150.17242222092682 85.58203125 146.3359375 C83.48644733566806 144.44008397387216 81.36566073269438 142.58807518834294 79.2265625 140.7421875 C74.83789598207392 136.90832726272856 70.67987276065651 132.87205585069364 66.5625 128.75 C65.81677734375 128.0034716796875 65.07105468750001 127.25694335937499 64.302734375 126.48779296875 C58.79650164701019 120.92024629553583 53.810403455544474 115.18069766698443 49 109 C47.54278618570913 107.26988978048735 46.08441462199198 105.54075415762213 44.625 103.8125 C38.94973304431187 96.86178106298127 33.915614832036795 89.49960432521681 29 82 C28.608124999999973 81.40235839843751 28.216250000000002 80.804716796875 27.8125 80.18896484375 C18.492828345317037 65.77664274929018 11.17196040186235 49.98792280341428 5 34 C2.994750336311199 104.2580067351713 13.463894174896836 190.6949229723304 63 244 C74.14539733802167 255.50083142169433 86.51918405942564 265.24697744255303 99.875 274.0625 C100.8740234375 274.73087890625 101.873046875 275.3992578125 102.90234375 276.087890625 C109.78815708923707 280.6591821902096 116.81852892119042 284.9100860356191 124 289 C123.67000000000002 289.66 123.34000000000003 290.32 123 291 C105.06506318944514 285.0092069108794 87.75780619543428 278.62917858897 72 268 C71.4332958984375 267.6211767578125 70.86659179687501 267.242353515625 70.28271484375 266.85205078125 C61.48425302428245 260.9306156278669 53.60338457636624 254.38080905209176 46 247 C45.503066406250014 246.52353027343747 45.00613281250003 246.047060546875 44.494140625 245.55615234375 C36.25558819755713 237.64000122410812 30.204841132834133 230.66663418584034 26.25 219.875 C25.9156494140625 218.9739453125 25.581298828125 218.072890625 25.23681640625 217.14453125 C17.234420853726135 195.1739819824702 11.047174410696869 173.0338398744227 7 150 C6.805673828125009 148.89462890624998 6.611347656250018 147.7892578125 6.4111328125 146.650390625 C-0.4233708045010758 106.45444439586635 -1.0565257969838058 65.35568400849547 -1.125 24.6875 C-1.1277694702148438 23.575371398925768 -1.1305389404296875 22.463242797851564 -1.133392333984375 21.317413330078125 C-1.1391648686559677 18.152980148409995 -1.1374155321126693 14.988652016718476 -1.1328125 11.82421875 C-1.1347813415527241 10.861178283691402 -1.1367501831054767 9.898137817382803 -1.1387786865234375 8.905914306640625 C-1.1356819152832145 8.023903503417955 -1.132585144042963 7.141892700195314 -1.12939453125 6.233154296875 C-1.1285989379882722 5.460618133544926 -1.1278033447265727 4.688081970214853 -1.126983642578125 3.8921356201171875 C-1 2 -1 2 0 0 Z " fill="#000000" transform="translate(257,149)" id="path-0001" />
<path d="M0 0 C13.615694337494347 11.693429180795306 23.966535726165944 27.083549130131075 25.4140625 45.42578125 C25.5107421875 46.01552734375002 25.5107421875 46.01552734375002 26 49 C27.79296875 50.2421875 27.79296875 50.2421875 30 51 C38.851622678441004 58.8862885970583 47.10445790389781 68.36415156440785 54 78 C54 78.65999999999997 54 79.31999999999994 54 80 C53.34628417968747 79.97905273437505 52.692568359374945 79.95810546874998 52.01904296875 79.9365234375 C32.8793481667044 79.40477176197282 14.659262524733322 80.26817049994634 -0.25 94.06640625 C-15.256608073444227 110.64736829543494 -17.808483378141545 129.0543016862756 -17.17919921875 150.7880859375 C-16.736472877185065 158.72338259911953 -15.012713582350443 166.3331806759661 -13 174 C-12.791010742187495 174.80228027343753 -12.582021484374991 175.60456054687506 -12.36669921875 176.43115234375 C-10.084364004125291 185.02880312603315 -7.4765474079840715 193.52143341262172 -4.7890625 202 C1.9048665820550923 223.1347491427158 7.273281508268838 243.9772885929525 10 266 C10.132773437499964 267.0634765625 10.265546874999927 268.126953125 10.40234375 269.22265625 C15.84016640141499 324.5692621404296 0.5233261948311565 382.1795482589845 -34 426 C-34.32291015625003 426.41958984375003 -34.32291015625003 426.41958984375003 -35.95703125 428.54296875 C-41.28055942708727 435.36272276911996 -47.07520987884027 441.70651816363056 -53 448 C-53.69480468749998 448.76054687500005 -54.389609374999964 449.52109375 -55.10546875 450.3046875 C-70.35595374376874 466.41061555918327 -90.54882265031631 478.6257219266163 -110 489 C-110.64018066406254 489.3427294921876 -111.28036132812497 489.6854589843749 -111.93994140625 490.03857421875 C-122.95188666374918 495.87862337917545 -134.3258633098552 500.6491142968846 -146 505 C-146.81001464843746 505.30292968749995 -147.62002929687503 505.605859375 -148.45458984375 505.91796875 C-177.0869829810365 516.4488951156914 -209.99680930532418 524.4235669493492 -240.6875 524.0625 C-241.19474609375004 524.05798828125 -241.19474609375004 524.05798828125 -243.76171875 524.03515625 C-244.13103515625005 524.02935546875 -244.13103515625005 524.02935546875 -246 524 C-246 523.67 -246 523.34 -246 523 C-245.18660156249996 522.8548999023437 -244.37320312500003 522.7097998046875 -243.53515625 522.560302734375 C-188.92936963881778 512.7056166945194 -137.9730189640975 492.82149129102334 -95 457 C-94.45843261718755 456.54866699218746 -93.916865234375 456.0973339843749 -93.35888671875 455.63232421875 C-82.14122290854527 446.24763224835783 -72.02709335904092 436.5650620989629 -63 425 C-62.536904296875036 424.40799804687504 -62.07380859374996 423.8159960937501 -61.5966796875 423.2060546875 C-38.57521487843849 393.6200533784289 -22.774495171986928 360.95189557326967 -15.25 324.1875 C-15.14449829101568 323.67465454101557 -15.14449829101568 323.67465454101557 -14.610595703125 321.079345703125 C-10.742093192629682 301.3368074499326 -10.973379972760767 280.7486793685523 -13.1875 260.8125 C-13.288369140625036 259.8668115234375 -13.389238281249959 258.921123046875 -13.4931640625 257.94677734375 C-16.031716021821694 237.43650915489025 -21.844606374030718 217.27063429866632 -26.996826171875 197.300537109375 C-35.03009740377286 166.09464889167543 -40.005494139063444 132.5608430520674 -24 103 C-21.58848256789952 99.08369569026877 -18.966061702508227 95.51213895393903 -16 92 C-15.396718749999991 91.28457031250002 -14.793437499999982 90.56914062500005 -14.171875 89.83203125 C-0.9736948208987997 75.49703303026195 15.478331546759136 71.5485663393249 34 70 C33.47567382812508 69.52804199218747 32.951347656249936 69.05608398437494 32.4111328125 68.56982421875 C14.669410107001568 52.37785393887566 14.669410107001568 52.37785393887566 12.6328125 41.25390625 C10.928424996840818 32.489987792397585 5.898434144803332 25.460189777641745 0 19 C0 18.340000000000032 0 17.680000000000007 0 17 C-1.3199999999999363 16.340000000000032 -2.6399999999999864 15.680000000000007 -4 15 C-4 14.339999999999975 -4 13.680000000000007 -4 13 C-4.279082031250027 12.869160156250018 -4.279082031250027 12.869160156250018 -5.69140625 12.20703125 C-8.24815895150357 10.870251918757049 -10.54987249908254 9.30677819987028 -12.9375 7.6875 C-29.662834145927718 -3.0310051936519358 -50.04501377401186 -5.92896132273313 -69.4384765625 -1.97216796875 C-96.71896018578468 4.679427508737717 -117.56469726586192 24.73834979383099 -132 48 C-149.38282117134327 76.70951201792695 -162.11588939718865 110.1943405327736 -169.657470703125 142.936767578125 C-170.05374595940657 144.63727079652904 -170.51860071849705 146.32160791043566 -171 148 C-171.65999999999997 148.33000000000004 -172.31999999999994 148.65999999999997 -173 149 C-171.59162304585834 138.77502695070075 -169.56485298909774 128.7541605110664 -167.3125 118.6875 C-167.1367041015625 117.89964111328129 -166.96090820312497 117.11178222656247 -166.77978515625 116.300048828125 C-158.82437220037127 80.81632458443323 -148.04909983892514 46.04369608335685 -124 18 C-123.65066406250003 17.57718749999998 -123.65066406250003 17.57718749999998 -121.8828125 15.4375 C-91.9379299431157 -19.662728638106103 -37.37212439523023 -29.201504702094496 0 0 Z " fill="#000000" transform="translate(884,479)" id="path-0002" />
<path d="M0 0 C3.2520709157219585 1.4173848902593136 5.313610671967808 3.125264115767834 7.75 5.6875 C10.43023039537087 8.442319367412722 13.145815667881948 11.059248592628819 16.0625 13.5625 C19.27302135828336 16.322421869401467 22.25357246525084 19.230910146437225 25.21875 22.25 C27.083896744480853 24.082424871770627 29.019277456667737 25.793531347282965 31 27.5 C34.19858384204332 30.25570300237581 37.17762186342031 33.15090915229678 40.131591796875 36.16455078125 C41.90077444987014 37.902524802577204 43.72410720490234 39.51162487245011 45.61328125 41.1171875 C50.532894246800595 45.394816476274514 55.10320771697633 49.993670779581464 59.6875 54.625 C60.51572265624998 55.45773437499997 61.34394531250001 56.29046875 62.197265625 57.1484375 C63.737752348499384 58.69755785605702 65.27719927813541 60.247713538246614 66.815185546875 61.79931640625 C70.79689122133806 65.80994272758312 74.80068535995667 69.79823314187786 78.80844116210938 73.78279113769531 C81.33510503641116 76.29594216459657 83.85900250290211 78.8118642478907 86.3828125 81.327880859375 C87.70645510311351 82.6464949182855 89.03099387288171 83.96421002920715 90.3564453125 85.281005859375 C103.3771210430657 98.21912882237996 103.3771210430657 98.21912882237996 108.46435546875 104.217041015625 C111.46763604155171 107.70399777606559 114.69752091599719 110.98506042948992 117.875 114.3125 C123.13949060619836 119.861362266318 128.16534446040305 125.46207508371367 132.921875 131.453125 C135.2253397484243 134.27616826310646 137.65441841600466 136.94730379219664 140.125 139.625 C143.6308285623585 143.44269674735358 146.91221682706225 147.3213186736208 150.04296875 151.44921875 C152.0408118003047 154.05319382355083 154.0908519224056 156.6079020824227 156.153076171875 159.160888671875 C162.97869321244139 167.61987532724038 169.59873324447085 176.2151898894257 176 185 C176.2180126953125 185.2988208007812 176.2180126953125 185.2988208007812 177.3212890625 186.81103515625 C192.11453617717098 207.27446280114373 204.7906629014334 229.40521681467249 216 252 C216.374150390625 252.74185546875003 216.74830078125 253.48371093750006 217.1337890625 254.248046875 C238.707015941961 297.1563417355287 251.37698264959477 348.52886551238305 236.80224609375 395.5869140625 C228.8990556607132 419.3590182134848 215.37280240084328 439.3125901168946 199 458 C198.65968750000002 458.39638671875 198.65968750000002 458.39638671875 196.9375 460.40234375 C191.83908302616692 466.2276834564303 186.39819810507913 471.70353423534766 180.9375 477.1875 C180.1813842773438 477.94828857421874 179.42526855468748 478.7090771484375 178.646240234375 479.492919921875 C173.92565077701386 484.20015551938513 169.06892538088846 488.67175146578325 164 493 C162.84746761918382 493.9971778565957 161.69511677889864 494.9945655846334 160.54296875 495.9921875 C153.44511048385448 502.0995742751544 146.28930348714675 508.1212112607043 139 514 C138.45295410156245 514.44279296875 137.90590820312502 514.8855859375 137.34228515625 515.341796875 C129.43769037967604 521.7356383087002 121.43723358646753 527.986062020208 113.343994140625 534.13916015625 C107.9868901467687 538.2211697333557 102.70844840357574 542.3916647479926 97.4619140625 546.614501953125 C93.24963377137226 550.0048602108881 89.00923449741674 553.3563658748645 84.75 556.6875 C75.95406427506816 563.580292905113 67.33981684025264 570.6768991670183 58.831298828125 577.920654296875 C55.47241140879612 580.7750879663091 52.06785834640158 583.559234942566 48.625 586.3125 C39.38694258731891 593.8302739941906 30.694177306995527 602.0983157269924 22.4716796875 610.71044921875 C21.000000000000057 612 21.000000000000057 612 19 612 C18.340000000000032 613.32 17.680000000000007 614.64 17 616 C16.340000000000032 616 15.680000000000007 616 15 616 C14.755078125000011 616.574921875 14.510156250000023 617.14984375 14.2578125 617.7421875 C12.787643167979411 620.3811871084097 11.070121898432546 622.0522542352779 8.875 624.125 C-17.01795718390906 649.5658579314916 -36.63396634786693 684.7691253655514 -45 720 C-45.660000000000025 720 -46.31999999999999 720 -47 720 C-43.58354039730415 673.0236804629317 -14.46336223386595 626.2536402138312 16.734375 592.4765625 C17.97550899698905 591.1198746481189 19.208871491047717 589.755280416668 20.402587890625 588.356689453125 C25.43618801537815 582.4673089055315 30.857300003665614 576.9903846093664 36.342529296875 571.527099609375 C37.934589663119255 569.9404005362668 39.5212299019762 568.3484225810377 41.107421875 566.755859375 C46.56674970057571 561.2929627694655 52.11893815386338 556.0108207122352 58 551 C59.607683725614606 549.5455448291716 61.212397145149396 548.0877910511945 62.8125 546.625 C68.06122190113422 541.8939820800096 73.50362813257243 537.4385795457717 79 533 C80.2544396930719 531.9772164174954 81.50831334738882 530.9537383273032 82.76171875 529.9296875 C89.10890162691021 524.7486455786377 95.47634233046091 519.6008976978628 101.9375 514.5625 C109.44145996334947 508.70712093271607 116.76685083250754 502.6400530914209 124.09765625 496.5703125 C126.61630964146673 494.4912598031424 129.1518899907984 492.4333187133519 131.6875 490.375 C153.1683740284824 472.79973943124173 175.40501868337583 454.22251335553096 191.79248046875 431.66064453125 C193.03203812182312 429.9559394855153 194.297569961671 428.27283740633663 195.56640625 426.58984375 C213.97000890135587 401.8723413471728 224.45681743971886 373.9908482247348 224.3125 342.9375 C224.30758544921878 341.67107666015625 224.30267089843755 340.4046533203125 224.297607421875 339.099853515625 C224.16649648987595 328.4973494813006 223.18510020332803 318.36783393396365 221 308 C220.83902832031254 307.21463867187504 220.67805664062507 306.4292773437501 220.51220703125 305.6201171875 C206.26330115250653 238.08495714358025 162.20760916251675 175.90322071578203 117.4765625 124.69873046875 C115.95234586264814 122.94517567994478 114.44300554960125 121.17979395979461 112.9375 119.41015625 C107.4676600452272 112.98129015151164 101.92154164746756 106.65025866785561 96.21484375 100.4296875 C94.35993182647542 98.39484584844394 92.54571201674906 96.33678753068591 90.75 94.25 C86.29366880988118 89.12885483280053 81.63126320384879 84.19808085058509 76.98388671875 79.2509765625 C74.56583422900917 76.674783912811 72.15640666091798 74.09128569504946 69.759033203125 71.495849609375 C57.638444446185986 58.42929289356641 45.01625562271465 45.86269621424043 32.404296875 33.27392578125 C29.215565738735222 30.09098500600959 26.03147365564371 26.903446455291828 22.848596572875977 23.71465301513672 C20.37980012128213 21.242256793596027 17.90864455375845 18.7722296495798 15.436748504638672 16.302932739257813 C14.259816565543701 15.126666893913864 13.083624291124693 13.949660475794417 11.908191680908203 12.771896362304688 C10.281853101511388 11.14303092765158 8.652367317533049 9.517382255859786 7.02197265625 7.892578125 C6.097604064941379 6.969005126953107 5.173235473632815 6.0454321289062705 4.220855712890625 5.0938720703125 C2 3 2 3 0 2 C0 1.339999999999975 0 0.6800000000000068 0 0 Z " fill="#000000" transform="translate(401,388)" id="path-0003" />
<path d="M0 0 C0.6844921874999841 0.4202343750000068 1.368984375000025 0.8404687500000136 2.07421875 1.2734375 C13.26661489136552 7.8782961041169415 24.95822552990552 12.685695483701522 37.188720703125 17.02978515625 C38.18734130859377 17.388627929687516 39.18596191406249 17.747470703124975 40.21484375 18.1171875 C41.11323974609377 18.432846679687486 42.01163574218748 18.748505859374973 42.937255859375 19.07373046875 C45 20 45 20 46 22 C39.46125618115104 21.427096043909273 33.69751898767561 19.808171848723987 27.5 17.6875 C26.60152343750002 17.391660156249998 25.703046874999984 17.095820312499995 24.77734375 16.791015625 C19.252344653558396 14.929243731512031 14.15339100432817 12.727203417010116 9 10 C13.104451317679434 17.92540328691939 17.73429203426491 25.272486513352817 22.875 32.5625 C23.544023437500016 33.52607421875001 24.213046874999975 34.48964843750002 24.90234375 35.482421875 C29.36534113045286 41.858746648806914 34.0686159071322 47.980205116907314 39 54 C39.47324707031248 54.58531494140624 39.94649414062502 55.17062988281248 40.43408203125 55.773681640625 C60.577834322376646 80.60048590651803 84.99451512002736 98.58380544608485 114 112 C114.68562011718751 112.3227490234375 115.37124023437502 112.64549804687499 116.07763671875 112.97802734375 C128.4349368181588 118.77412903533923 141.1246985070748 123.48947477972433 154 128 C153.34000000000003 128.65999999999997 152.68 129.31999999999994 152 130 C149.13692722704275 129.77622664622504 146.44583102232184 129.42661939559753 143.625 128.9375 C142.77864990234377 128.79538085937497 141.9322998046875 128.65326171874995 141.060302734375 128.5068359375 C111.3057266772588 123.2987572172309 83.66565214970478 112.85689381530995 58 97 C56.88882812500003 96.31937499999998 55.77765625000001 95.63875000000002 54.6328125 94.9375 C48.58220551645309 90.91493580041202 44.814532116138196 86.52484876006247 41.046875 80.3203125 C39.344007237749224 77.5580270077993 37.56426613204496 74.94508788771645 35.68359375 72.3046875 C0 21.65120636933176 0 21.65120636933176 0 0 Z " fill="#000000" transform="translate(296,410)" id="path-0004" />
<path d="M0 0 C4.2959713891023625 1.6499020552349748 7.005176464132887 4.817428074006898 10.125 8.0625 C15.760135135135101 13.880067567567608 15.760135135135101 13.880067567567608 18 15 C18 15.659999999999968 18 16.32000000000005 18 17 C18.59603027343752 17.273120117187545 19.192060546874984 17.546240234374977 19.80615234375 17.82763671875 C21.932358529515568 18.963853289420626 23.374148028681986 20.094725501771222 25.1015625 21.7578125 C25.668830566406257 22.2968823242187 26.236098632812514 22.835952148437514 26.820556640625 23.391357421875 C27.11828979492185 23.677408447265634 27.11828979492185 23.677408447265634 28.625 25.125 C34.20622455133724 30.39306987062878 39.911731388007524 35.320352542024466 46 40 C46.91265625 40.730898437499945 47.825312499999995 41.461796875000005 48.765625 42.21484375 C79.01341380496041 66.14162027905195 113.32537906161406 82.9423396644844 149.509033203125 95.879638671875 C150.57855224609375 96.26224853515623 151.6480712890625 96.64485839843746 152.75 97.0390625 C153.69359375 97.37115722656245 154.63718749999998 97.703251953125 155.609375 98.04541015625 C158 99 158 99 161 101 C153.12589534918652 101.28676996704985 145.89127584114465 100.54431374630303 138.1875 98.9375 C137.10509033203124 98.71489501953124 136.02268066406248 98.49229003906248 134.907470703125 98.262939453125 C104.43736327046145 91.74014366449626 69.55500796762652 80.22553737041221 47 58 C46.42926757812501 57.449892578124945 45.858535156250014 56.899785156250005 45.2705078125 56.3330078125 C30.62784742478658 42.209533167065615 17.570001534160554 26.517179622397975 5.625 10.0625 C5.059584960937514 9.287290039062555 4.494169921875027 8.512080078124995 3.91162109375 7.71337890625 C3.6542114257812273 7.353972167968777 3.6542114257812273 7.353972167968777 2.3515625 5.53515625 C1.896040039062484 4.899729003906259 1.440517578125025 4.264301757812518 0.97119140625 3.609619140625 C0 2 0 2 0 0 Z " fill="#000000" transform="translate(361,527)" id="path-0005" />
<path d="M0 0 C0.2971289062500091 0.04282104492187955 0.2971289062500091 0.04282104492187955 1.80078125 0.259521484375 C4.533745101829879 0.6529428942272943 7.266870875706957 1.0452284634692433 10 1.4375 C10.46728515625 1.5048535156249727 10.46728515625 1.5048535156249727 12.83203125 1.845703125 C13.753710937499989 1.9778320312500455 14.675390624999977 2.1099609374999773 15.625 2.24609375 C16.0439453125 2.3063171386718295 16.0439453125 2.3063171386718295 18.1640625 2.611083984375 C24.408496030526805 3.4674357934426325 30.47382319625143 4.138374041829707 36.78125 4.31640625 C37.480203857421884 4.337187347412055 38.17915771484377 4.357968444824223 38.8992919921875 4.3793792724609375 C41.099442588072066 4.443985352973414 43.29969696270712 4.503339086464393 45.5 4.5625 C47.00521842452582 4.605770167888522 48.51042692766322 4.649386929142224 50.015625 4.693359375 C53.6769774443635 4.7995731855064605 57.33844233642816 4.901081963744673 61 5 C53.79294641634169 8.893113558150048 45.24093945681699 8.192503719133924 37.25 8.1875 C36.18974609374999 8.188144531250032 35.12949218749998 8.18878906249995 34.037109375 8.189453125 C26.79809750666834 8.1405108198054 20.068323040618793 7.608507403157546 13 6 C19.771093160389228 10.937466059129974 26.683484031943976 15.282230451654186 34.0625 19.25 C35.101242675781236 19.80864746093755 36.13998535156247 20.367294921874986 37.210205078125 20.94287109375 C56.600817892979876 31.209774611942066 76.92670485622227 38.98143128134086 97.44287109375 46.66357421875 C128.3079627322744 58.25969718575641 153.99421072670884 69.20293473791412 168.3203125 100.7578125 C169 103 169 103 168 106 C167.46632812500002 105.10539062500004 166.93265625000004 104.21078124999997 166.3828125 103.2890625 C151.8325872238222 79.43807902863114 129.53237525725854 69.6253336169425 103.97113037109375 61.002716064453125 C89.03447067084551 55.95283632260714 74.28126482368975 50.720798471346825 60 44 C59.35079589843747 43.70077636718747 58.70159179687499 43.401552734374945 58.03271484375 43.09326171875 C36.72497007020047 33.22135009175656 15.744351295123522 18.41597377830942 0 1 C0 0.6699999999999591 0 0.34000000000003183 0 0 Z " fill="#000000" transform="translate(443,624)" id="path-0006" />
<path d="M0 0 C3.963183105977464 2.348552951690408 6.1640685435994556 4.518674129758438 7.5625 8.875 C8.384907946240446 13.269482864254542 7.267541611782235 16.145179259970178 5 20 C2.037254017354826 23.064909637219216 -0.7720743692301539 23.834198994871826 -5 24 C-9.492392838644946 22.553297221453363 -12.788222196745323 21.300679061884125 -15 17 C-16.198262324096845 13.148442529688737 -16.08120401284657 11.26165737472786 -14.875 7.375 C-11.400064281302207 1.1201157063439382 -7.263662543805822 -1.6062502298435675 0 0 Z " fill="#000000" transform="translate(851,510)" id="path-0007" />
<path d="M0 0 C3.437520073698579 1.527786699421597 6.189536882825848 3.501810562511878 9 6 C9 6.660000000000025 9 7.319999999999993 9 8 C4.725744202248279 6.416942297129026 2.734682055761027 3.4943159601390903 0 0 Z " fill="#000000" transform="translate(392,380)" id="path-0008" />
<path d="" fill="#000000" transform="translate(0,0)" id="path-0009" />
<path d="" fill="#000000" transform="translate(0,0)" id="path-0010" />
</svg>
